{"title":"Screw.My.Girlfriend.While.I.Watch.XXX.DVDRip.XviD-STARLETS","uid":7862265,"size":1457638336,"categoryP":"porn","categoryS":"movies","magnet":"?xt=urn:btih:5c2c4e00b797299facc30f3046198207ea44e1f6&amp;dn=Screw.My.Girlfriend.While.I.Watch.XXX.DVDRip.XviD-STARLETS&amp;tr=udp%3A%2F%2Ftracker.openbittorrent.com%3A80&amp;tr=udp%3A%2F%2Fopen.demonii.com%3A1337&amp;tr=udp%3A%2F%2Ftracker.coppersurfer.tk%3A6969&amp;tr=udp%3A%2F%2Fexodus.desync.com%3A6969","seeders":1,"leechers":0,"uploader":"R0thschild","files":4,"time":1353962825,"description":"Gallery: \n &lt;a href=&quot;\nhttp://imagedomino.com/?g=875009&quot; rel=&quot;nofollow&quot; target=&quot;_NEW&quot;&gt;\nhttp://imagedomino.com/?g=875009&lt;/a&gt;\n\nStudio\nNew Sensations\nStarring\nAllyssa Hall, Chastity Lynn, Brooke Adams, Cassie Rose\nGenre\nGonzo, All Sex\nDescription\nChastity Lynn, Cassie Rose, Allyssa Hall, Brooke Adams, and Amber Sun love to get their pussies ripped and ravaged while being watched. So sit back and enjoy the show, because these girlfriends are about to get pounded by someone else's dick! Oh, did we mention it's the boyfriends doing the watching? Because that's exactly what turns these bitches on!\n\nDuration                         : 1h 32mn\nBit rate                         : 915 Kbps\nWidth                            : 624 pixels\nHeight                           : 352 pixels\nDisplay aspect ratio             : 16:9\nFrame rate                       : 29.970 fps\nColor space                      : YUV\nChroma subsampling               : 4:2:0\nBit depth                        : 8 bits\nScan type                        : Progressive\nCompression mode                 : Lossy\nBits/(Pixel*Frame)               : 0.139\nStream size                      : 607 MiB (87%)\n\nDuration                         : 1h 31mn\nBit rate                         : 913 Kbps\nWidth                            : 624 pixels\nHeight                           : 352 pixels\nDisplay aspect ratio             : 16:9\nFrame rate                       : 29.970 fps\nColor space                      : YUV\nChroma subsampling               : 4:2:0\nBit depth                        : 8 bits\nScan type                        : Progressive\nCompression mode                 : Lossy\nBits/(Pixel*Frame)               : 0.139\nStream size                      : 597 MiB (87%)","torrent":{"xt":"urn:btih:5c2c4e00b797299facc30f3046198207ea44e1f6","amp;dn":"Screw.My.Girlfriend.While.I.Watch.XXX.DVDRip.XviD-STARLETS","amp;tr":["udp%3A%2F%2Ftracker.openbittorrent.com%3A80","udp%3A%2F%2Fopen.demonii.com%3A1337","udp%3A%2F%2Ftracker.coppersurfer.tk%3A6969","udp%3A%2F%2Fexodus.desync.com%3A6969"],"infoHash":"5c2c4e00b797299facc30f3046198207ea44e1f6","infoHashBuffer":{"type":"Buffer","data":[92,44,78,0,183,151,41,159,172,195,15,48,70,25,130,7,234,68,225,246]},"announce":[],"urlList":[]}}